<?xml version="1.0" encoding="UTF-8"?>
<svg width="1200pt" height="1200pt" version="1.1" viewBox="0 0 1200 1200" xmlns="http://www.w3.org/2000/svg">
 <path d="m1059.6 550.8c-21.602 6-36 10.801-57.602 4.8008-18-4.8008-33.602-15.602-50.398-22.801-18-8.3984-14.398-12-1.1992-25.199l1.1992-1.1992c7.1992-6 27.602-26.398 20.398-36-7.1992-8.3984-28.801-12-38.398-14.398-28.801-6-57.602-7.1992-86.398-2.3984-60 12-116.4 57.602-158.4 86.398-18 13.199-37.199 40.801-49.199 60-2.3984 4.8008-7.1992 1.1992-4.8008-2.3984 4.8008-10.801 9.6016-21.602 15.602-31.199 21.602-39.602 52.801-72 76.801-110.4 14.398-22.801 24-46.801 26.398-74.398 1.1992-12 4.8008-58.801-10.801-64.801-15.602-6-34.801 27.602-46.801 21.602-4.8008-2.3984-2.3984-13.199-2.3984-16.801-1.1992-12-3.6016-24-8.3984-36-19.199-43.199-55.199-103.2-70.801-148.8-3.6016-10.801-8.3984-15.602-12-15.602s-8.3984 4.8008-12 15.602c-15.602 45.602-51.602 105.6-70.801 148.8-4.8008 10.801-8.3984 22.801-8.3984 36 0 3.6016 2.3984 14.398-2.3984 16.801-12 4.8008-31.199-28.801-46.801-21.602-15.602 6-12 52.801-10.801 64.801 2.3984 27.602 12 50.398 26.398 74.398 24 38.398 55.199 70.801 76.801 110.4 6 9.6016 10.801 20.398 15.602 31.199 2.3984 4.8008-2.3984 7.1992-4.8008 2.3984-12-19.199-30-48-49.199-60-42-28.801-99.602-74.398-158.4-86.398-28.801-6-57.602-4.8008-86.398 2.3984-9.6016 2.3984-31.199 6-38.398 14.398-7.1992 9.6016 13.199 28.801 20.398 36l1.1992 1.1992c13.199 13.199 16.801 16.801-1.1992 25.199-16.801 8.3984-32.398 18-50.398 22.801-21.602 6-37.199 1.1992-57.602-4.8008-28.801-8.3984-12 15.602-3.6016 27.602 49.199 73.199 136.8 91.199 218.4 68.398 44.398-12 105.6-22.801 144-9.6016 30 10.801 57.602 37.199 57.602 72 0 54-19.199 76.801-34.801 96-13.199 15.602-34.801 25.199-54 12-27.602-19.199-7.1992-37.199-13.199-60-3.6016-16.801-43.199 0-50.398 4.8008-19.199 12-31.199 31.199-33.602 54-6 55.199 55.199 98.398 106.8 86.398 6-1.1992 46.801-25.199 45.602-12-2.3984 26.398 0 48 9.6016 73.199 8.3984 24 22.801 45.602 32.398 68.398 1.1992 1.1992 2.3984 10.801 6 22.801 7.1992 28.801 48 28.801 55.199 0 2.3984-12 4.8008-21.602 6-22.801 9.6016-22.801 24-44.398 32.398-68.398 9.6016-25.199 12-46.801 9.6016-73.199-1.1992-13.199 40.801 10.801 45.602 12 51.602 12 112.8-31.199 106.8-86.398-2.3984-21.602-14.398-42-33.602-54-7.1992-4.8008-48-21.602-50.398-4.8008-4.8008 22.801 15.602 40.801-13.199 60-19.199 13.199-40.801 3.6016-54-12-15.602-19.199-33.602-42-34.801-96 0-33.602 27.602-61.199 57.602-72 38.398-13.199 99.602-2.3984 144 9.6016 82.801 22.801 169.2 4.8008 218.4-68.398 5.9883-13.203 22.785-36.004-6.0117-27.602z" fill="currentColor"/>
</svg>
